HIERARCHY
ROOT Hips
{
	OFFSET 0.000000 0.000000 0.000000 
	CHANNELS 6 Xposition Yposition Zposition Yrotation Zrotation Xrotation 
	JOINT Lumbar
	{
		OFFSET 0.000000 0.000000 0.000000 
		CHANNELS 3 Zrotation Xrotation Yrotation
		JOINT Neck
		{
			OFFSET 0.000000 0.445665 0.000000 
			CHANNELS 3 Zrotation Xrotation Yrotation
			End Site
			{
				OFFSET 0.000000 0.227535 0.000000 
			}
		}
		JOINT RightShoulder
		{
			OFFSET 0.019635 0.377685 0.194865 
			CHANNELS 3 Zrotation Xrotation Yrotation
			JOINT RightElbow
			{
				OFFSET 0.000000 -0.243375 0.000000 
				CHANNELS 2 Zrotation Yrotation
				JOINT RightWrist
				{
					OFFSET 0.000000 -0.264825 0.000000 
					CHANNELS 2 Zrotation Xrotation
					End Site
					{
						OFFSET 0.006600 -0.176220 0.000990 
					}
				}
			}
		}
		JOINT LeftShoulder
		{
			OFFSET 0.019635 0.377685 -0.194865 
			CHANNELS 3 Zrotation Xrotation Yrotation
			JOINT LeftElbow
			{
				OFFSET 0.000000 -0.243375 0.000000 
				CHANNELS 2 Zrotation Yrotation
				JOINT LeftWrist
				{
					OFFSET 0.000000 -0.264825 0.000000 
					CHANNELS 2 Zrotation Xrotation
					End Site
					{
						OFFSET 0.006600 -0.176220 -0.000990 
					}
				}
			}
		}
	}
	JOINT RightHip
	{
		OFFSET 0.052140 -0.069960 0.075570 
		CHANNELS 3 Zrotation Xrotation Yrotation
		JOINT RightKnee
		{
			OFFSET 0.000000 -0.402270 0.000000 
			CHANNELS 1 Zrotation
			JOINT RightAnkle
			{
				OFFSET 0.000000 -0.404085 0.000000 
				CHANNELS 3 Zrotation Xrotation Yrotation
				End Site
				{
					OFFSET 0.204105 -0.089430 0.008415 
				}
			}
		}
	}
	JOINT LeftHip
	{
		OFFSET 0.052140 -0.069960 -0.075570 
		CHANNELS 3 Zrotation Xrotation Yrotation
		JOINT LeftKnee
		{
			OFFSET 0.000000 -0.402270 0.000000 
			CHANNELS 1 Zrotation
			JOINT LeftAnkle
			{
				OFFSET 0.000000 -0.404085 0.000000 
				CHANNELS 3 Zrotation Xrotation Yrotation
				End Site
				{
					OFFSET 0.204105 -0.089430 -0.008415 
				}
			}
		}
	}
}
MOTION
Frames: 33
Frame Time: 0.02
-0.47602 -0.02308 -0.53498 189.18139 -49.02697 2.53988 29.31185 2.86571 7.73659 3.58097 -2.2009 -2.11994 12.92686 1.1071 54.11201 92.26149 89.88599 2.31454 2.97172 24.63913 45.96624 -8.51201 68.10568 -75.16553 -7.4994 -1.44697 63.09117 -2.45541 -9.33308 -33.88941 -6.8335 -1.66052 -3.06072 65.26983 12.11927 2.86755 -29.12712 -8.68121 2.03016 3.31234
-0.47778 -0.0227 -0.54177 189.3766 -49.23463 2.61787 29.39108 2.83621 7.35473 3.92061 -2.48752 -2.11994 12.70293 1.09227 54.12274 92.37998 90.52102 2.70692 2.9595 28.17963 46.85434 -11.8414 66.62373 -72.51238 -8.20277 -2.06374 62.92874 -2.04226 -9.54066 -33.28259 -6.83304 -1.66166 -3.06198 65.06595 12.2944 2.13747 -28.29953 -8.78439 2.07947 3.34344
-0.47965 -0.0224 -0.5482 189.55461 -49.42256 2.70723 29.48959 2.80889 6.926 4.2974 -2.7921 -2.11994 12.43735 1.0988 54.13572 92.50199 91.1478 3.11145 2.93383 32.11736 47.87523 -15.66416 64.80294 -69.16289 -9.08316 -2.86325 62.74775 -1.64059 -9.68889 -32.68355 -6.83309 -1.66649 -3.0654 64.82013 12.42644 1.32531 -27.46639 -8.89102 2.14347 3.38286
-0.48148 -0.02205 -0.55476 189.75142 -49.62218 2.78886 29.57864 2.7883 6.49858 4.6735 -3.09812 -2.11994 12.18918 1.09797 54.14747 92.61627 91.75874 3.5053 2.9106 36.0271 48.78017 -19.31927 63.03253 -66.34809 -9.80355 -3.55182 62.57594 -1.23627 -9.88143 -32.07631 -6.83405 -1.6689 -3.06751 64.59824 12.58453 0.57763 -26.63005 -8.99726 2.19721 3.41668
-0.48327 -0.02177 -0.56145 189.90009 -49.80866 2.88092 29.67213 2.73448 6.1566 4.97695 -3.36171 -2.11994 11.94372 1.08657 54.15955 92.76058 92.45936 3.92284 2.9036 39.31002 49.92612 -22.76592 61.69418 -62.62804 -10.85462 -4.35764 62.39789 -0.821 -10.00516 -31.48763 -6.83014 -1.67399 -3.07078 64.35049 12.71911 -0.27662 -25.81267 -9.09843 2.26501 3.45764
-0.48516 -0.02136 -0.56779 190.1462 -50.01965 2.95411 29.7615 2.75123 5.62346 5.44458 -3.72047 -2.11994 11.68559 1.10345 54.17234 92.8401 92.96948 4.29477 2.85966 43.97429 50.59281 -26.72638 59.38107 -60.60225 -11.26767 -4.96398 62.23036 -0.43135 -10.25626 -30.86137 -6.8367 -1.67464 -3.07228 64.15026 12.88967 -0.93164 -24.95676 -9.21128 2.30771 3.48608
-0.48726 -0.02066 -0.57333 190.65834 -50.28796 2.97248 29.82098 2.95495 4.5959 6.32704 -4.31578 -2.11994 11.38475 1.18116 54.17805 92.75845 92.94381 4.51746 2.71279 52.49968 49.98345 -32.26887 54.42061 -63.66982 -9.79356 -4.95875 62.08687 -0.10908 -10.87434 -30.14446 -6.86982 -1.66107 -3.0678 64.07184 13.18599 -1.01289 -23.9936 -9.35204 2.27372 3.47581
-0.48945 -0.01983 -0.57851 191.27043 -50.58418 2.97168 29.87773 3.23087 3.37475 7.37905 -5.01049 -2.11994 11.0762 1.28849 54.18569 92.60797 92.72765 4.69651 2.52989 62.37052 48.87351 -38.2334 48.50286 -68.42185 -7.68719 -4.74817 61.95642 0.18763 -11.6209 -29.3872 -6.91383 -1.64321 -3.06161 64.04673 13.51664 -0.89113 -22.9938 -9.5049 2.21467 3.45305
-0.4916 -0.01904 -0.5838 191.842 -50.87801 2.97943 29.94453 3.47868 2.22648 8.37311 -5.67374 -2.11994 10.78328 1.39042 54.19829 92.47607 92.60545 4.90903 2.36603 71.53514 47.93919 -43.85006 43.04301 -72.24316 -5.92245 -4.64348 61.82698 0.49578 -12.30881 -28.63865 -6.95434 -1.62797 -3.05657 64.01081 13.82092 -0.86766 -22.01188 -9.65473 2.16981 3.43751
-0.49373 -0.01835 -0.58932 192.39321 -51.12899 2.9875 29.97532 3.70715 1.13555 9.28829 -6.27892 -2.11994 10.43781 1.4602 54.18736 92.39667 92.45241 5.0668 2.19025 81.12877 47.22405 -50.24514 37.45586 -76.7372 -3.93062 -4.49691 61.66879 0.80457 -12.99995 -27.93016 -6.98885 -1.60979 -3.04994 63.91728 14.16948 -0.82752 -21.0211 -9.79499 2.11404 3.41595
-0.49592 -0.01742 -0.59426 193.00961 -51.4745 2.99113 30.07964 3.99248 -0.11419 10.40692 -7.02942 -2.11994 10.20036 1.60226 54.22458 92.19313 92.31782 5.32514 2.03118 90.12436 45.93732 -54.98442 31.93473 -80.23959 -2.26445 -4.38044 61.5723 1.10575 -13.71046 -27.12957 -7.03829 -1.59694 -3.04629 63.95626 14.43415 -0.76523 -20.04445 -9.95709 2.07435 3.40357
-0.49822 -0.01584 -0.59775 193.79247 -52.08749 2.97953 30.39232 4.42146 -1.8046 12.04946 -8.14758 -2.11994 10.26481 1.94684 54.40495 91.65093 92.28444 5.89479 1.92472 97.29465 43.14584 -56.18505 26.62689 -80.59292 -1.60634 -4.44951 61.65575 1.39513 -14.48647 -26.076 -7.12756 -1.59769 -3.05029 64.35431 14.46195 -0.75808 -19.07919 -10.18432 2.08953 3.42215
-0.50057 -0.01403 -0.60065 194.6359 -52.79191 2.96567 30.77806 4.90398 -3.63743 13.88875 -9.40956 -2.11994 10.43808 2.3596 54.63134 90.98944 92.27459 6.56132 1.83683 103.78339 39.80474 -55.52044 21.4575 -79.89491 -1.30449 -4.54663 61.79829 1.67713 -15.26912 -24.93284 -7.23123 -1.60441 -3.05755 64.88271 14.4037 -0.72394 -18.13631 -10.43167 2.12089 3.4499
-0.50291 -0.01236 -0.60377 195.44412 -53.44633 2.95756 31.12726 5.35968 -5.37392 15.63707 -10.6125 -2.11994 10.56067 2.73633 54.83014 90.38974 92.25281 7.17029 1.74206 110.4831 36.74677 -54.92305 16.36056 -79.67894 -0.86999 -4.5941 61.90581 1.9608 -16.02127 -23.83605 -7.32747 -1.60969 -3.0639 65.34791 14.38301 -0.65665 -17.20722 -10.66466 2.14194 3.47174
-0.50518 -0.01058 -0.6071 196.28686 -54.13889 2.92808 31.49072 5.83 -7.25576 17.4032 -11.79482 -2.11994 10.68836 3.1417 55.05874 89.75192 92.23353 7.841 1.63945 117.65611 33.53104 -57.51051 10.66126 -79.4971 -0.29409 -4.78491 62.04931 2.25116 -16.89631 -22.71337 -7.42786 -1.60912 -3.0676 65.83268 14.3702 -0.76946 -16.17566 -10.92001 2.17463 3.50049
-0.50763 -0.00895 -0.60985 197.07253 -54.77148 2.94378 31.84153 6.27962 -8.85975 19.17008 -13.04968 -2.11994 10.83111 3.49532 55.23423 89.17075 92.21218 8.39902 1.55803 123.65242 30.51936 -53.17284 6.25848 -78.98048 -0.10044 -4.69327 62.13041 2.52558 -17.51227 -21.62464 -7.52283 -1.62265 -3.07783 66.30568 14.31989 -0.50914 -15.36334 -11.13351 2.18723 3.5172
-0.51058 -0.0078 -0.61114 197.67039 -55.23231 3.07661 32.14255 6.67617 -9.71693 20.94715 -14.49668 -2.11994 10.99041 3.75828 55.26736 88.73487 92.22351 8.69054 1.53021 126.65578 28.21427 -28.80604 5.43935 -77.72103 -0.92196 -3.75692 62.03602 2.76262 -17.43762 -20.64484 -7.59963 -1.66987 -3.10347 66.72541 14.1886 0.82241 -15.15131 -11.22563 2.14051 3.49841
-0.51372 -0.00682 -0.61186 198.21118 -55.62668 3.25653 32.4278 7.04654 -10.27939 22.70686 -16.00566 -2.11994 11.16029 3.95487 55.24184 88.36756 92.22543 8.85469 1.5229 128.4751 26.13581 2.21952 5.91859 -76.16598 -2.11027 -2.54713 61.87471 2.983 -17.09739 -19.70357 -7.67031 -1.73174 -3.13589 67.12675 14.02201 2.51769 -15.15929 -11.27511 2.07315 3.46727
-0.51678 -0.00577 -0.61283 198.78761 -56.04046 3.4204 32.71824 7.41719 -10.93812 24.43673 -17.4687 -2.11994 11.32509 4.13508 55.23384 87.99619 92.20262 9.03006 1.50711 130.77069 23.94863 29.29724 5.78315 -74.78828 -3.10318 -1.50161 61.73642 3.20806 -16.8596 -18.74953 -7.74358 -1.78953 -3.16647 67.5286 13.87048 4.01551 -15.0665 -11.34458 2.01522 3.44178
-0.51986 -0.00467 -0.61381 199.32494 -56.50219 3.56183 33.01942 7.83851 -11.75639 26.33275 -19.01399 -2.11994 11.49723 4.50969 55.26886 87.50799 92.2997 9.39783 1.49007 133.30359 21.76027 60.30612 5.75393 -73.19614 -4.22947 -0.28831 61.63101 3.44539 -16.69529 -17.77315 -7.81834 -1.83699 -3.19209 67.96702 13.72036 5.65414 -14.97774 -11.41191 1.95742 3.41632
-0.52292 -0.00372 -0.61465 199.92975 -56.84812 3.76093 33.29375 8.14772 -12.17624 27.87615 -20.39815 -2.11994 11.65217 4.46837 55.19615 87.27875 92.14867 9.34332 1.47818 135.07073 19.64276 84.71538 5.81261 -71.99047 -5.16033 0.64113 61.44095 3.65287 -16.31964 -16.85261 -7.88813 -1.90895 -3.22942 68.32465 13.55975 7.08052 -14.9326 -11.47365 1.89451 3.38791
-0.5259 -0.00317 -0.61522 200.73012 -56.88072 4.10996 33.49522 8.15011 -11.5171 28.44682 -21.34328 -2.11994 11.78391 3.24533 54.87243 87.7674 91.27984 8.06673 1.49399 135.00442 17.6071 88.98744 5.77669 -71.95713 -5.4622 0.71692 61.02904 3.78601 -15.38305 -16.08645 -7.94569 -2.04937 -3.29927 68.45 13.38193 7.87459 -14.95358 -11.52702 1.82018 3.35292
-0.52884 -0.00277 -0.61566 201.60033 -56.80045 4.51479 33.67018 8.0409 -10.47587 28.66258 -22.11904 -2.11994 11.89367 1.61455 54.43724 88.51091 90.16825 6.38465 1.51117 134.21318 15.64936 86.42978 5.78762 -72.32224 -5.55298 0.4985 60.53498 3.88901 -14.25071 -15.37422 -7.99707 -2.21367 -3.38053 68.49632 13.19482 8.43497 -15.01073 -11.57664 1.74178 3.31559
-0.53179 -0.00228 -0.61617 202.44215 -56.77786 4.89288 33.85877 7.98495 -9.64229 29.04229 -22.95834 -2.11994 11.99369 0.20292 54.03034 89.12593 89.19041 4.94581 1.51494 133.76284 13.69611 87.17837 5.78928 -72.48809 -5.73837 0.41649 60.08093 4.00321 -13.23584 -14.63094 -8.05292 -2.3634 -3.4551 68.58746 13.01009 9.07334 -15.05167 -11.63019 1.66673 3.28024
-0.53479 -0.00186 -0.61666 203.27039 -56.72607 5.27929 34.04079 7.91766 -8.65517 29.41132 -23.85835 -2.11994 12.17225 -1.35255 53.71115 89.79815 88.11261 3.2566 1.57164 133.22262 11.57896 87.31363 5.78512 -72.71834 -5.94219 0.33161 59.61251 4.12728 -12.09172 -13.91488 -8.10702 -2.527 -3.53544 68.6415 12.83101 9.84101 -15.09984 -11.67328 1.58466 3.24067
-0.53768 -0.00135 -0.61714 204.14109 -56.70911 5.65995 34.22961 7.84751 -7.90067 29.71724 -24.58868 -2.11994 12.1884 -2.70608 53.18946 90.4091 87.18643 1.99052 1.52038 132.71272 9.82257 87.00769 5.78783 -72.91479 -6.05284 0.18053 59.15633 4.22399 -11.17332 -13.15653 -8.15652 -2.67015 -3.60741 68.75295 12.6395 10.28228 -15.13806 -11.73728 1.51645 3.2094
-0.54027 -0.00049 -0.61767 205.13827 -56.81663 6.01952 34.45006 7.79938 -7.88513 29.94547 -24.90873 -2.11994 11.70503 -3.38688 52.08497 90.80305 86.72952 2.02418 1.15127 132.47241 9.011 87.19953 5.78694 -72.90824 -5.954 -0.09346 58.74665 4.25123 -10.93158 -12.25134 -8.25761 -2.72363 -3.64371 69.05359 12.40697 9.84931 -15.14414 -11.8647 1.48849 3.2025
-0.54274 0.00047 -0.61818 206.17056 -56.96339 6.36932 34.67695 7.75182 -8.1174 30.12023 -25.05963 -2.11994 11.06945 -3.85252 50.79012 91.12318 86.4347 2.49196 0.67683 132.2923 8.56462 87.14013 5.78683 -72.85762 -5.76743 -0.42293 58.3543 4.25229 -10.9241 -11.30545 -8.34552 -2.75936 -3.67245 69.41277 12.16415 9.099 -15.13723 -12.01255 1.47466 3.204
-0.54525 0.00137 -0.61868 207.17051 -57.09197 6.71816 34.89702 7.70245 -8.23609 30.31373 -25.27764 -2.11994 10.54052 -4.42689 49.61631 91.46763 86.07218 2.74098 0.26346 132.08482 7.97129 87.13336 5.7871 -72.83695 -5.62178 -0.72057 57.95858 4.26631 -10.80712 -10.3881 -8.39462 -2.82285 -3.71168 69.73769 11.93208 8.51277 -15.13222 -12.14822 1.45369 3.2011
-0.54785 0.00235 -0.61926 208.24438 -57.21772 7.09279 35.13336 7.65589 -8.3468 30.52017 -25.53423 -2.11994 9.85264 -4.97089 48.2936 91.86127 85.67829 3.0678 -0.2049 131.85039 7.30105 87.15568 5.78687 -72.78876 -5.46491 -1.05666 57.53896 4.27488 -10.69593 -9.42714 -8.62062 -2.80974 -3.72368 70.09183 11.67389 7.83767 -15.14485 -12.2962 1.43512 3.20035
-0.55022 0.00317 -0.61968 209.16878 -57.36058 7.40935 35.33674 7.60485 -8.53614 30.68927 -25.66843 -2.11994 9.45995 -5.51977 47.23629 92.12998 85.38852 3.33927 -0.58459 131.69713 6.87604 87.14183 5.78691 -72.78145 -5.31288 -1.32151 57.17679 4.28884 -10.63094 -8.55054 -8.49021 -2.94451 -3.78774 70.40045 11.46793 7.27168 -15.11797 -12.42313 1.41554 3.19743
-0.55204 0.00354 -0.61971 209.69677 -57.5383 7.57916 35.4558 7.54372 -8.90022 30.78971 -25.54154 -2.11994 9.91963 -6.14903 46.96765 92.08435 85.37328 3.36836 -0.68655 131.74904 7.04399 87.14671 5.78691 -72.90333 -5.19963 -1.37988 56.94876 4.32504 -10.63814 -7.88341 -7.24659 -3.55414 -4.0209 70.56638 11.40747 7.1171 -14.97774 -12.48964 1.38468 3.18407
-0.55362 0.00374 -0.61959 210.06818 -57.73315 7.68872 35.54011 7.47821 -9.3334 30.8523 -25.29178 -2.11994 10.68138 -6.78555 46.97147 91.91207 85.45404 3.32571 -0.69696 131.88523 7.44472 87.14703 5.78689 -73.0649 -5.09472 -1.36266 56.78239 4.3673 -10.68506 -7.30861 -5.6675 -4.30227 -4.30255 70.68562 11.40009 7.07898 -14.7995 -12.53376 1.35322 3.16868
